<svg width="256" height="256" viewBox="0 0 256 256" fill="none" xmlns="http://www.w3.org/2000/svg">
  <defs>
    <linearGradient id="shieldOuter" x1="128" y1="14" x2="128" y2="242" gradientUnits="userSpaceOnUse">
      <stop stop-color="#CFE7FF"/>
      <stop offset="1" stop-color="#7EA9D9"/>
    </linearGradient>
    <linearGradient id="shieldInner" x1="128" y1="30" x2="128" y2="226" gradientUnits="userSpaceOnUse">
      <stop stop-color="#3AA1FF"/>
      <stop offset="1" stop-color="#0F2D8A"/>
    </linearGradient>
    <radialGradient id="bulbGlow" cx="0" cy="0" r="1" gradientUnits="userSpaceOnUse" gradientTransform="translate(86 97) rotate(90) scale(60)">
      <stop stop-color="#FFF8C0" stop-opacity="0.95"/>
      <stop offset="1" stop-color="#FFD651" stop-opacity="0.2"/>
    </radialGradient>
    <linearGradient id="bulbBody" x1="70" y1="72" x2="108" y2="130" gradientUnits="userSpaceOnUse">
      <stop stop-color="#FFF596"/>
      <stop offset="1" stop-color="#FFC832"/>
    </linearGradient>
    <linearGradient id="bubbleBg" x1="133" y1="84" x2="212" y2="146" gradientUnits="userSpaceOnUse">
      <stop stop-color="#7FD1FF"/>
      <stop offset="1" stop-color="#2B7DDE"/>
    </linearGradient>
  </defs>

  <path d="M128 10L220 43V112C220 167 183 214 128 244C73 214 36 167 36 112V43L128 10Z" fill="url(#shieldOuter)"/>
  <path d="M128 26L206 54V111C206 160 173 201 128 226C83 201 50 160 50 111V54L128 26Z" fill="url(#shieldInner)"/>
  <path d="M128 30L201 56V111C201 157 170 196 128 220C86 196 55 157 55 111V56L128 30Z" stroke="#A2D2FF" stroke-opacity="0.7" stroke-width="2"/>

  <circle cx="86" cy="97" r="60" fill="url(#bulbGlow)"/>
  <path d="M86 63C68.7 63 54.5 76.8 54.5 94.5C54.5 105.5 60.1 115.3 68.6 121V132C68.6 135.1 71.1 137.6 74.2 137.6H97.8C100.9 137.6 103.4 135.1 103.4 132V121C111.9 115.3 117.5 105.5 117.5 94.5C117.5 76.8 103.3 63 86 63Z" fill="url(#bulbBody)"/>
  <rect x="73" y="137.5" width="26" height="7" rx="3.5" fill="#8D8F99"/>
  <rect x="74.5" y="145.5" width="23" height="5" rx="2.5" fill="#6E7382"/>

  <path d="M74 96L83 105L98 88" stroke="#1775D2" stroke-width="7" stroke-linecap="round" stroke-linejoin="round"/>

  <path d="M138 81H201C208.2 81 214 86.8 214 94V121C214 128.2 208.2 134 201 134H169L155 147V134H138C130.8 134 125 128.2 125 121V94C125 86.8 130.8 81 138 81Z" fill="url(#bubbleBg)"/>
  <rect x="145" y="94" width="50" height="5" rx="2.5" fill="#D7EEFF"/>
  <rect x="145" y="105" width="38" height="5" rx="2.5" fill="#D7EEFF"/>
  <rect x="145" y="116" width="44" height="5" rx="2.5" fill="#D7EEFF"/>
</svg>
